<svg version="1.0" xmlns="http://www.w3.org/2000/svg"
 width="128.000000pt" height="128.000000pt" viewBox="0 0 128.000000 128.000000"
 preserveAspectRatio="xMidYMid meet">

<g transform="translate(0.000000,128.000000) scale(0.100000,-0.100000)"
fill="#FFFFFF" stroke="none">
<path d="M627 1132 c-21 -23 -21 -70 -1 -97 15 -20 15 -20 35 4 24 29 24 48 1
84 -18 26 -19 27 -35 9z"/>
<path d="M722 1015 c-25 -32 -27 -44 -10 -80 l11 -25 24 22 c26 24 29 51 9 87
l-13 23 -21 -27z"/>
<path d="M526 1014 c-12 -31 -6 -61 18 -83 l23 -22 12 30 c10 24 10 34 -3 60
-18 34 -40 40 -50 15z"/>
<path d="M620 961 c-14 -28 -12 -64 5 -87 15 -19 15 -19 36 5 21 25 20 61 -3
88 -15 18 -26 16 -38 -6z"/>
<path d="M380 897 c0 -30 27 -55 68 -63 31 -6 31 -6 22 26 -11 37 -8 34 -37
49 -35 18 -53 14 -53 -12z"/>
<path d="M855 908 c-11 -6 -21 -12 -23 -13 -1 -1 -7 -17 -12 -35 l-9 -32 32 6
c36 7 67 38 67 67 0 21 -24 25 -55 7z"/>
<path d="M500 871 c0 -12 11 -33 25 -46 27 -27 75 -34 75 -11 0 23 -42 65 -72
72 -24 5 -28 3 -28 -15z"/>
<path d="M745 883 c-31 -8 -55 -34 -55 -61 0 -22 3 -24 33 -18 17 3 38 14 45
23 13 18 17 64 5 62 -5 -1 -17 -4 -28 -6z"/>
<path d="M641 818 c-1 -21 -5 -26 -18 -21 -16 6 -16 5 0 -17 9 -14 17 -35 17
-48 0 -20 -4 -22 -22 -17 -22 7 -23 7 -3 -8 16 -12 20 -30 23 -89 5 -91 6 -90
-171 -178 -172 -85 -203 -123 -223 -274 -5 -31 -3 -46 5 -46 6 0 11 17 11 39
0 62 31 142 70 181 28 28 188 117 303 168 4 2 7 -9 7 -25 0 -27 -8 -33 -111
-83 -130 -65 -180 -111 -203 -191 -9 -29 -16 -62 -15 -73 0 -21 0 -21 9 -1 4
11 14 41 20 66 22 85 76 134 223 202 l77 36 0 -27 c0 -24 -9 -32 -74 -64 -41
-20 -90 -51 -109 -67 -37 -33 -81 -121 -74 -149 2 -11 6 -7 12 13 21 82 75
139 182 194 53 27 63 26 63 -2 0 -17 -10 -28 -35 -40 -49 -23 -120 -91 -140
-133 -26 -56 -9 -52 19 4 26 51 62 85 123 116 l32 16 4 -92 3 -93 2 93 2 92
39 -19 c50 -26 96 -73 122 -123 25 -49 37 -44 14 6 -20 42 -91 110 -140 133
-25 12 -35 23 -35 40 0 30 11 29 82 -9 72 -38 139 -111 158 -169 9 -29 15 -38
18 -26 6 27 -44 122 -81 153 -17 14 -64 42 -104 62 -65 32 -73 40 -73 65 l0
28 109 -56 c143 -73 176 -111 207 -240 5 -21 8 -25 11 -13 3 10 -3 43 -12 74
-24 83 -72 128 -204 194 -103 50 -111 56 -111 83 0 16 3 27 8 25 121 -54 273
-140 302 -169 40 -42 70 -118 70 -180 0 -22 5 -39 11 -39 8 0 10 15 5 46 -20
151 -51 189 -223 274 -172 86 -173 86 -173 172 0 55 4 72 20 88 11 11 20 22
20 25 0 3 -9 1 -20 -5 -18 -9 -20 -8 -20 16 0 15 8 36 18 47 16 19 16 20 0 14
-13 -4 -18 1 -21 21 l-4 27 -2 -27z"/>
<path d="M450 776 c0 -24 51 -66 81 -66 51 0 60 8 44 40 -17 32 -33 40 -86 40
-26 0 -39 -4 -39 -14z"/>
<path d="M721 764 c-25 -32 -26 -40 -5 -48 35 -13 67 -5 95 25 16 17 29 35 29
40 0 5 -22 9 -49 9 -42 0 -53 -4 -70 -26z"/>
<path d="M346 705 c-20 -15 -20 -15 0 -30 25 -19 64 -19 93 2 23 15 23 17 6
30 -24 17 -75 16 -99 -2z"/>
<path d="M841 706 c-10 -11 -7 -17 11 -30 28 -20 59 -20 84 -1 19 15 19 15 0
30 -25 19 -80 19 -95 1z"/>
<path d="M506 677 c-16 -12 -15 -14 8 -36 20 -19 31 -22 60 -17 41 8 47 28 14
50 -27 19 -58 20 -82 3z"/>
<path d="M693 666 l-28 -24 28 -11 c43 -16 61 -13 87 14 l23 24 -27 11 c-40
15 -52 13 -83 -14z"/>
</g>
                </svg>